<?xml version="1.0" encoding="iso-8859-1"?>
<!-- Generator: Adobe Illustrator 19.0.0, SVG Export Plug-In . SVG Version: 6.00 Build 0)  -->
<svg version="1.1" id="Capa_1" xmlns="http://www.w3.org/2000/svg" xmlns:xlink="http://www.w3.org/1999/xlink" x="0px" y="0px"
	 viewBox="0 0 512.002 512.002" style="enable-background:new 0 0 512.002 512.002;" xml:space="preserve">
<polygon style="fill:#F5C86E;" points="180.049,33.458 200.161,45.548 230.974,32.778 236.649,10 275.325,10 281,32.778 
	311.813,45.548 331.925,33.458 359.279,60.812 347.189,80.924 359.959,111.737 382.737,117.412 382.737,156.088 359.959,161.763 
	347.189,192.576 359.279,212.688 331.925,240.042 311.813,227.952 281,240.722 275.325,263.5 236.649,263.5 230.974,240.722 
	200.161,227.952 180.049,240.042 152.695,212.688 164.785,192.576 152.015,161.763 129.237,156.088 129.237,117.412 
	152.015,111.737 164.785,80.924 152.695,60.812 "/>
<polygon style="fill:#A5DC69;" points="153.09,469.387 96.501,502 10.001,352.178 66.59,319.565 "/>
<path style="fill:#FFCDAC;" d="M146.584,458H308.81c33.686,0,65.946-13.599,89.467-37.713l95.447-97.856
	c11.841-12.139,10.849-31.787-2.153-42.673l0,0c-11.614-9.724-28.743-8.923-39.4,1.842l-86.597,87.477
	c-7.248,7.322-17.123,11.442-27.426,11.442h-76.952l-24.581-0.076h76.119c14.602,0,26.829-11.066,28.28-25.596l0,0
	c1.395-13.968-7.616-26.862-21.213-30.353l-57.83-14.847c-34.566-8.874-71.044-6.694-104.307,6.235l-76.118,29.586L146.584,458z"/>
<path d="M126.82,165.792l17.887,4.456l8.91,21.499l-9.492,15.79c-2.366,3.935-1.747,8.976,1.5,12.223l27.354,27.354
	c3.247,3.246,8.287,3.865,12.223,1.5l15.79-9.492l21.499,8.91l4.456,17.887c1.11,4.456,5.112,7.583,9.704,7.583h38.676
	c4.592,0,8.593-3.127,9.704-7.583l4.456-17.887l21.499-8.91l15.79,9.492c3.935,2.365,8.975,1.747,12.223-1.5l27.354-27.354
	c3.247-3.247,3.865-8.288,1.5-12.223l-9.492-15.79l8.91-21.499l17.887-4.456c4.456-1.11,7.583-5.112,7.583-9.704v-38.677
	c0-4.592-3.127-8.593-7.583-9.704l-17.887-4.456l-8.91-21.499l9.492-15.79c2.366-3.936,1.747-8.976-1.5-12.223l-27.354-27.354
	c-3.247-3.247-8.289-3.865-12.223-1.5l-15.79,9.492l-21.499-8.91L285.031,7.58C283.918,3.127,279.917,0,275.325,0h-38.676
	c-4.592,0-8.593,3.127-9.704,7.583l-4.456,17.887l-21.499,8.91l-15.79-9.492c-3.936-2.366-8.977-1.748-12.223,1.5l-27.354,27.354
	c-3.247,3.247-3.866,8.288-1.5,12.223l9.492,15.79l-8.91,21.499l-17.887,4.456c-4.456,1.11-7.583,5.112-7.583,9.704v38.677
	C119.237,160.68,122.364,164.682,126.82,165.792z M139.237,125.226l15.195-3.785c3.076-0.767,5.607-2.946,6.821-5.875l12.77-30.813
	c1.214-2.93,0.966-6.262-0.667-8.98l-8.063-13.415l16.303-16.302l13.414,8.063c2.718,1.633,6.05,1.882,8.98,0.667l30.813-12.77
	c2.929-1.214,5.108-3.745,5.875-6.821L244.463,20h23.047l3.786,15.196c0.767,3.076,2.946,5.607,5.875,6.821l30.813,12.77
	c2.931,1.214,6.263,0.966,8.98-0.667l13.414-8.063l16.303,16.302l-8.063,13.415c-1.634,2.718-1.881,6.05-0.667,8.98l12.77,30.813
	c1.214,2.929,3.745,5.108,6.821,5.875l15.195,3.785v23.048l-15.195,3.785c-3.076,0.767-5.607,2.946-6.821,5.875l-12.77,30.813
	c-1.214,2.93-0.966,6.262,0.667,8.98l8.063,13.414l-16.303,16.303l-13.414-8.063c-2.718-1.633-6.05-1.882-8.98-0.667l-30.813,12.77
	c-2.929,1.214-5.108,3.745-5.875,6.821l-3.786,15.196h-23.047l-3.786-15.196c-0.767-3.076-2.946-5.607-5.875-6.821l-30.813-12.77
	c-2.931-1.214-6.263-0.966-8.98,0.667l-13.414,8.063l-16.303-16.303l8.063-13.414c1.634-2.718,1.881-6.05,0.667-8.98l-12.77-30.813
	c-1.214-2.929-3.745-5.108-6.821-5.875l-15.195-3.785L139.237,125.226L139.237,125.226z"/>
<path d="M511.951,300.12c-0.547-10.844-5.636-21.061-13.96-28.03c-15.479-12.956-38.726-11.871-52.926,2.475l-86.597,87.478
	c-3.155,3.187-7.037,5.57-11.25,6.984c1.975-4.026,3.274-8.468,3.746-13.187c1.899-19.021-10.161-36.278-28.677-41.032
	l-57.83-14.847c-36.813-9.453-74.994-7.169-110.417,6.601l-68.123,26.479L75.25,314.564c-2.76-4.78-8.872-6.42-13.653-3.664
	L5.008,343.514c-2.299,1.325-3.978,3.51-4.665,6.072c-0.688,2.563-0.329,5.294,0.998,7.592l27.419,47.491
	c2.761,4.782,8.877,6.422,13.66,3.66s6.422-8.877,3.66-13.66l-22.415-38.824l39.261-22.627l76.5,132.503l-39.261,22.626
	l-19.377-33.563c-2.761-4.782-8.878-6.423-13.66-3.66c-4.783,2.762-6.422,8.877-3.66,13.66L87.841,507
	c1.852,3.208,5.213,5.002,8.669,5.002c1.694,0,3.411-0.432,4.984-1.338l56.589-32.612c2.299-1.325,3.978-3.509,4.665-6.072
	c0.352-1.309,0.426-2.662,0.241-3.979h28.512c5.523,0,10-4.478,10-10s-4.477-10-10-10h-39.212l-56.254-97.435l65.251-25.363
	c31.504-12.243,65.46-14.273,98.198-5.87l57.83,14.847c8.877,2.28,14.66,10.554,13.749,19.673
	c-0.945,9.458-8.825,16.591-18.329,16.591h-76.12c-5.517,0-9.992,4.468-10,9.984s4.452,9.998,9.969,10.016l24.612,0.076h76.952
	c12.882,0,25.469-5.251,34.533-14.406l86.597-87.478c6.942-7.014,18.308-7.543,25.874-1.209c4.129,3.457,6.553,8.323,6.825,13.702
	s-1.65,10.465-5.411,14.32l-95.447,97.856C369.612,435.354,339.612,448,308.81,448h-46.809c-5.523,0-10,4.478-10,10s4.477,10,10,10
	h46.809c36.159,0,71.378-14.846,96.626-40.73l95.447-97.856C508.464,321.641,512.499,310.963,511.951,300.12z"/>
<path d="M225.501,448c-2.63,0-5.21,1.069-7.07,2.93c-1.86,1.86-2.93,4.44-2.93,7.07s1.07,5.21,2.93,7.069
	c1.86,1.86,4.44,2.931,7.07,2.931s5.21-1.07,7.07-2.931c1.86-1.859,2.93-4.439,2.93-7.069s-1.07-5.21-2.93-7.07
	S228.131,448,225.501,448z"/>
<path d="M61.811,422.6c-1.86-1.859-4.43-2.93-7.07-2.93c-2.63,0-5.21,1.07-7.07,2.93c-1.86,1.87-2.93,4.44-2.93,7.07
	c0,2.64,1.07,5.21,2.93,7.07c1.87,1.869,4.44,2.939,7.07,2.939s5.21-1.07,7.07-2.939c1.87-1.86,2.93-4.431,2.93-7.07
	C64.741,427.04,63.681,424.47,61.811,422.6z"/>
<path d="M203.104,169.258c1.953,1.953,4.512,2.929,7.071,2.929s5.119-0.976,7.071-2.929c3.905-3.905,3.905-10.237,0-14.143
	L198.88,136.75l18.366-18.365c3.905-3.905,3.905-10.237,0-14.143c-3.905-3.905-10.237-3.905-14.143,0l-25.437,25.437
	c-3.905,3.905-3.905,10.237,0,14.143L203.104,169.258z"/>
<path d="M294.756,169.258c1.953,1.953,4.512,2.929,7.071,2.929s5.119-0.976,7.071-2.929l25.437-25.437
	c3.905-3.905,3.905-10.237,0-14.143l-25.437-25.437c-3.905-3.905-10.237-3.905-14.143,0c-3.905,3.905-3.905,10.237,0,14.143
	l18.366,18.365l-18.366,18.365C290.851,159.021,290.851,165.353,294.756,169.258z"/>
<path d="M232.977,175.929c1.591,0.935,3.335,1.38,5.057,1.38c3.429,0,6.768-1.765,8.631-4.935l35.916-61.115
	c2.798-4.761,1.207-10.89-3.555-13.688c-4.761-2.798-10.89-1.206-13.688,3.555l-35.916,61.115
	C226.624,167.002,228.215,173.131,232.977,175.929z"/>
<g>
</g>
<g>
</g>
<g>
</g>
<g>
</g>
<g>
</g>
<g>
</g>
<g>
</g>
<g>
</g>
<g>
</g>
<g>
</g>
<g>
</g>
<g>
</g>
<g>
</g>
<g>
</g>
<g>
</g>
</svg>
